# xmcd
#
# Track frame offsets: 
#        300
#        16404
#        30454
#        46230
#        61802
#        71599
#        91941
#        108128
#        123549
#        141453
#        162338
#
# Disc length: 2310 seconds
#
# Revision: 0
# Processed by: cddbd v1.5.2PL0 Copyright (c) Steve Scherf et al.
# Submitted via: ExactAudioCopy v0.99pb5
#
DISCID=9009020b
DTITLE=Anni Piper - Texas Hold 'Em
DYEAR=2007
DGENRE=General Blues
TTITLE0=Mystery of Love
TTITLE1=Texas Hold 'Em
TTITLE2=Love's Truly Blind
TTITLE3=Blues Before Sunrise
TTITLE4=Playing Your Bottom Line
TTITLE5=The More I Keep On Losin'
TTITLE6=Watchdog
TTITLE7=Little Redhead
TTITLE8=Empty Arms
TTITLE9=Untrue
TTITLE10=Tailor Made
EXTD=
EXTT0=
EXTT1=
EXTT2=
EXTT3=
EXTT4=
EXTT5=
EXTT6=
EXTT7=
EXTT8=
EXTT9=
EXTT10=
PLAYORDER=
